<?xml version="1.0" encoding="utf-8" ?>
<svg xmlns="http://www.w3.org/2000/svg" xmlns:xlink="http://www.w3.org/1999/xlink" width="1074" height="1074">
	<path fill="#1D466E" transform="matrix(1.04883 0 0 1.04883 0.000488281 6.10352e-05)" d="M512.334 53.4856C521.269 56.686 534.544 65.7981 543.316 70.6518L635.178 122.3L794.431 211.757Q822.858 227.504 851.119 243.549C862.605 249.965 874.651 255.879 885.513 263.323C894.923 269.772 902.131 278.558 907.611 288.506Q908.585 290.268 909.468 292.078Q910.351 293.888 911.141 295.74Q911.93 297.592 912.624 299.483Q913.318 301.373 913.914 303.296Q914.51 305.22 915.007 307.171Q915.505 309.122 915.901 311.096Q916.298 313.07 916.594 315.062Q916.89 317.054 917.083 319.058C917.763 326.291 917.536 333.636 917.54 340.898L917.535 373.825L917.584 478.474L917.573 615.936L917.617 657.326C917.654 666.31 917.964 675.397 917.467 684.369C917.006 692.683 915.325 700.96 913.014 708.946C906.359 731.951 893.24 754.513 875.005 770.257C857.565 785.314 835.711 794.969 815.567 805.803L754.362 839.362L516.184 970.273L512.232 972.391C479.946 953.439 446.456 936.271 413.609 918.289L261.798 834.567L192.438 796.079C180.033 789.17 166.84 782.995 155.239 774.782Q153.232 773.363 151.3 771.844Q149.368 770.325 147.515 768.709Q145.663 767.094 143.896 765.386Q142.128 763.678 140.45 761.883Q138.772 760.087 137.187 758.208Q135.603 756.329 134.116 754.372Q132.629 752.415 131.244 750.385Q129.859 748.354 128.579 746.256C120.439 732.775 115.995 717.715 114.604 702.073C113.48 689.417 113.967 676.519 113.977 663.819L114.002 600.132L113.967 361.363C114 349 114.152 336.61 113.944 324.249C113.767 313.754 111.441 289.608 113.928 280.698C115.056 276.657 118.98 274.378 122.319 272.245C134.95 264.176 148.86 257.388 161.963 250.086Q201.108 228.483 239.961 206.358L512.334 53.4856ZM133.447 288.063L132.98 576.56L132.922 655.249C132.877 672.206 131.363 689.529 134.31 706.321C137.208 722.84 145.682 738.802 157.465 750.715C171.51 764.915 194.791 775.465 212.438 785.296L269.01 816.799L436.067 909.573C461.168 923.47 486.956 936.268 511.598 950.995L517.625 947.75L757.749 815.969L816.318 784.154C830.89 776.373 846.751 769.532 859.615 759.026C875.377 746.154 887.975 727.295 893.806 707.795C896.534 698.671 897.838 689.068 898.325 679.569C899.618 654.345 898.711 629.062 898.567 603.818L898.458 490.457L898.467 384.469C898.491 365.541 899.756 346.413 898.236 327.534C897.379 316.889 894.669 306.406 889.512 297.019C884.529 287.95 877.252 280.86 868.63 275.233C857.398 267.901 845.321 261.725 833.554 255.3Q812.466 243.72 791.525 231.873L634.011 143.021L542.784 91.6259C537.94 88.8844 517.104 75.9873 513.354 75.0412C513.089 74.9742 512.812 74.9613 512.542 74.9213C483.885 90.0166 455.833 106.382 427.597 122.247L282.297 203.859L188.947 256.351Q170.626 266.484 152.443 276.862C146.091 280.498 139.542 284.006 133.447 288.063Z"/>
	<path fill="#1D466E" transform="matrix(1.04883 0 0 1.04883 0.000488281 6.10352e-05)" d="M149.431 300.439C149.425 299.65 149.374 298.748 149.592 297.982C149.94 296.76 151.032 295.785 152.009 295.041C155.173 292.63 163.459 289.13 167.704 286.674Q199.741 268.271 232.141 250.516L418.34 145.888L481.183 111.166C491.387 105.431 502.426 99.9298 511.979 93.1984Q512.051 121.589 511.706 149.977L511.869 153.588C511.299 163.6 510.454 175.131 512.078 185.027L512.067 188.909C510.987 196.658 510.771 210.628 511.912 218.305L511.933 221.984Q511.818 237.366 511.911 252.748L511.894 254.532C511.824 264.016 511.56 273.524 511.656 283.006L511.679 286.237Q511.433 301.05 511.633 315.864L511.512 319.392L511.491 483.998L258.972 483.98L184.087 484.007C172.58 483.993 160.962 484.789 149.487 483.933L149.459 422.391C149.48 411.084 149.847 399.667 149.477 388.371L149.374 384.729C150.447 376.2 149.594 366.714 149.571 358.091L149.465 306.002L149.431 300.439ZM275.705 324.318C277.617 332.578 280.456 341.174 281.678 349.52L281.43 352.955C281.375 354.31 281.147 356.052 281.455 357.373C282.192 360.546 287.415 365.033 290.024 366.946L290.735 366.73L291.009 367.361L291.465 367.332C292.261 366.452 291.957 363.773 292.101 362.455L292.58 362.306C294.271 365.421 295.311 373.732 296.235 377.553C288.196 390.047 278.191 399.563 273.845 414.369C248.936 408.657 237.715 420.066 215.942 428.349C213.688 427.382 211.395 426.309 209.024 425.664C206.433 424.96 203.734 424.891 201.391 426.366C198.287 428.32 197.103 432.085 196.459 435.497C194.312 446.86 194.087 463.755 201.115 473.658C202.266 475.281 203.176 476.225 205.158 476.592C211.426 474.021 205.607 456.113 213.878 447.632C228.727 432.406 253.592 434.585 273.018 434.014C276.788 433.903 280.922 433.354 284.214 431.415C290.718 427.582 296.394 420.163 301.543 414.722L325.265 389.48C340.199 394.382 356.034 400.263 371.904 400.002C374.763 413.899 381.825 425.077 388.043 437.553C390.625 442.735 392.721 448.189 394.885 453.557C394.351 454.314 393.8 455.084 393.363 455.903C392.07 458.328 391.895 461.531 392.851 464.095C394.346 468.109 397.902 470.157 401.576 471.798C410.85 468.144 436.752 456.782 440.851 448.127C441.446 446.871 441.434 445.993 441.011 444.673C436.623 440.322 419.185 447.722 411.403 445.046C409.094 444.252 407.727 442.331 406.682 440.214C404.783 436.368 403.981 431.956 402.988 427.812C400.456 417.241 397.598 399.079 391.479 390.192C384.145 379.538 341.235 361.763 338.93 356.061C338.68 355.442 339.006 355.065 339.229 354.49C351.271 346.82 357.185 339.31 362.067 325.967C365.51 333.388 367.982 347.574 375.803 351.46C377.262 352.184 379.005 352.494 380.553 351.845C389.56 348.07 404.844 321.962 411.703 313.615C415.187 309.375 421.469 307.477 423.736 302.151C424.635 300.039 425.024 297.197 424.017 295.051C423.514 293.977 422.618 293.688 421.606 293.245C420.074 292.575 418.789 291.806 417.412 290.865C417.746 290.004 417.861 289.216 417.979 288.304C417.456 287.076 417.466 286.973 416.324 286.312C415.218 286.417 415.008 286.431 414.116 287.075C414.078 288.305 414.003 289.479 413.841 290.702L413.224 290.617C412.786 289.325 412.422 287.953 411.614 286.837C411.126 286.163 410.665 286.251 409.9 286.189C408.265 286.057 406.962 286.592 405.807 287.728C401.986 291.484 403.811 299.665 403.857 304.498C403.885 307.399 402.964 309.117 400.999 311.166C399.043 314.023 396.697 316.425 394.066 318.663C389.838 322.689 385.997 327.02 382.022 331.287C374.538 320.073 375.618 300.535 365.682 292.036C362.695 289.481 358.434 287.804 355.003 285.818C356.119 283.371 357.033 280.827 357.999 278.317C361.7 277.387 369.539 277.272 371.908 273.988C372.514 273.149 372.178 271.989 371.975 271.051C371.917 270.781 371.849 270.514 371.786 270.245C372.389 268.477 373.193 268.644 374.139 267.416C374.912 266.414 374.344 265.178 374.125 264.057C376.622 260.929 380.98 258.858 384.422 256.882C394.999 250.808 405.899 245.364 416.689 239.689L465.454 213.744L495.609 197.437C500.858 194.594 506.454 190.892 512.067 188.909L512.078 185.027C510.454 175.131 511.299 163.6 511.869 153.588L511.706 149.977Q512.051 121.589 511.979 93.1984C502.426 99.9298 491.387 105.431 481.183 111.166L418.34 145.888L232.141 250.516Q199.741 268.271 167.704 286.674C163.459 289.13 155.173 292.63 152.009 295.041C151.032 295.785 149.94 296.76 149.592 297.982C149.374 298.748 149.425 299.65 149.431 300.439L149.465 306.002L149.571 358.091C149.594 366.714 150.447 376.2 149.374 384.729L157.92 380.032C159.614 380.196 161.277 380.418 162.958 380.69C168.015 380.347 171.105 378.717 175.194 375.829Q176.023 386.96 177.328 398.045C171.944 397.777 165.634 398.018 161.409 401.869C160.165 403.003 159.37 404.388 159.301 406.099C159.181 409.03 161.059 410.961 162.995 412.872C167.13 414.439 171.215 414.612 175.355 412.827C178.015 411.68 180.324 409.537 181.24 406.735C181.761 405.143 181.46 403.467 181.247 401.845C180.76 400.609 180.585 399.364 180.345 398.063C179.353 389.458 178.01 380.858 177.357 372.22C177.152 371.144 177.111 370.017 177.013 368.925C198.903 358.713 220.447 347.804 242.203 337.315C251.838 332.67 266.839 327.074 275.156 320.956L275.705 324.318ZM429.512 358.471C429.496 348.975 429.207 339.417 429.655 329.933C429.641 329.82 429.637 329.706 429.613 329.594C429.279 328.082 429.202 328.078 427.941 327.247C426.483 327.879 425.152 328.217 424.162 329.504C425.114 330.763 426.616 330.579 427.295 332.136C428.471 334.83 427.163 349.873 426.938 353.717C424.114 351.467 421.17 349.968 417.451 350.263Q416.949 350.306 416.454 350.399Q415.959 350.492 415.475 350.634Q414.992 350.776 414.525 350.966Q414.058 351.155 413.613 351.39Q413.167 351.625 412.747 351.903Q412.327 352.182 411.937 352.5Q411.547 352.819 411.191 353.175Q410.834 353.531 410.515 353.921C408.625 356.206 407.606 359.424 408.021 362.376C408.255 364.047 408.983 365.447 410.294 366.535C412.32 368.216 415.533 368.259 417.975 367.78C422.317 366.93 425.283 364.968 428.704 362.352C429.038 361.082 429.25 359.76 429.512 358.471Z"/>
	<path fill="#1D466E" transform="matrix(1.04883 0 0 1.04883 0.000488281 6.10352e-05)" d="M310.173 303.648L316.62 302.274C316.247 315.875 311.195 329.569 303.947 340.992C303.12 342.319 302.336 343.729 301.363 344.951L297.579 353.317L293.096 348.807L291.035 346.673C288.928 337.858 290.727 323.251 290.58 313.7L290.603 309.894C291.01 307.729 290.821 305.366 290.809 303.165C296.643 303.527 302.567 303.421 308.416 303.584L310.173 303.648Z"/>
	<path fill="#89D1E4" transform="matrix(1.04883 0 0 1.04883 0.000488281 6.10352e-05)" d="M291.035 346.673C294.69 344.398 299.567 341.331 303.947 340.992C303.12 342.319 302.336 343.729 301.363 344.951L297.579 353.317L293.096 348.807L291.035 346.673Z"/>
	<path fill="#1D466E" transform="matrix(1.04883 0 0 1.04883 0.000488281 6.10352e-05)" d="M293.096 348.807C295.713 347.068 298.194 345.415 301.363 344.951L297.579 353.317L293.096 348.807Z"/>
	<path fill="#1D466E" transform="matrix(1.04883 0 0 1.04883 0.000488281 6.10352e-05)" d="M290.809 303.165C296.643 303.527 302.567 303.421 308.416 303.584C303.403 306.254 296.17 308.557 290.603 309.894C291.01 307.729 290.821 305.366 290.809 303.165Z"/>
	<path fill="#89D1E4" transform="matrix(1.04883 0 0 1.04883 0.000488281 6.10352e-05)" d="M308.416 303.584L310.173 303.648C305.948 306.869 293.224 310.704 291.219 314.292L290.58 313.7L290.603 309.894C296.17 308.557 303.403 306.254 308.416 303.584Z"/>
	<path fill="#1D466E" transform="matrix(1.04883 0 0 1.04883 0.000488281 6.10352e-05)" d="M149.431 300.439C149.425 299.65 149.374 298.748 149.592 297.982C149.94 296.76 151.032 295.785 152.009 295.041C155.173 292.63 163.459 289.13 167.704 286.674Q199.741 268.271 232.141 250.516L418.34 145.888L481.183 111.166C491.387 105.431 502.426 99.9298 511.979 93.1984Q512.051 121.589 511.706 149.977L511.869 153.588C511.299 163.6 510.454 175.131 512.078 185.027L512.067 188.909C506.454 190.892 500.858 194.594 495.609 197.437L465.454 213.744L416.689 239.689C405.899 245.364 394.999 250.808 384.422 256.882C380.98 258.858 376.622 260.929 374.125 264.057C373.141 262.585 372.566 261.215 371.976 259.55C372.639 252.082 372.58 242.344 367.398 236.405C362.767 231.095 355.344 226.609 348.243 226.284C342.207 226.008 339.435 229.153 334.957 232.416C332.563 234.16 329.962 235.538 327.84 237.641C324.794 240.661 323.021 244.64 323.019 248.949C323.016 253.894 325.579 258.08 329.118 261.359C330.921 263.03 332.978 264.27 335.103 265.479C335.885 269.244 337.248 273.232 335.996 277.002C333.652 279.914 291.855 286.954 284.997 288.579C280.91 290.261 277.177 292.253 273.362 294.47C271.121 301.986 273.058 313.546 275.156 320.956C266.839 327.074 251.838 332.67 242.203 337.315C220.447 347.804 198.903 358.713 177.013 368.925C176.252 362.516 176.958 349.108 174.915 343.856L172.92 344.585C172.166 352.26 172.24 360.481 172.638 368.186C166.755 367.385 160.518 367.603 155.633 371.538C154.615 372.358 153.754 373.471 153.791 374.841C153.833 376.356 155.212 378.105 156.369 378.992C156.863 379.37 157.393 379.703 157.92 380.032L149.374 384.729C150.447 376.2 149.594 366.714 149.571 358.091L149.465 306.002L149.431 300.439ZM455.017 149.137L455.007 178.534L454.989 183.008L455.057 193.36C453.147 195.125 451.214 196.847 450.79 199.573C450.603 200.781 450.692 201.787 451.52 202.723C452.865 204.242 454.811 204.741 456.774 204.87C461.095 205.155 465.512 203.378 468.67 200.464C470.278 198.981 471.803 196.844 471.844 194.571C471.908 191.077 470.613 189.03 468.293 186.582C464.972 186.823 461.842 187.283 458.584 187.968L458.321 181.982C458.256 180.533 458.331 179.044 458.342 177.592L458.355 163.276C465.935 158.537 479.58 150.99 484.206 143.376C479.716 141.93 460.19 140.446 455.74 141.812L454.912 144.346C454.969 145.924 455.115 147.564 455.017 149.137ZM431.873 194.696C431.858 193.311 431.96 191.931 432.036 190.548C431.703 189.333 431.542 188.076 430.536 187.231C429.528 187.436 429.885 187.181 429.284 188.069C428.408 189.363 428.111 191.104 427.961 192.638L428.023 197.023Q427.941 203.442 428.189 209.856C422.883 211.976 417.291 214.736 413.814 219.462C412.575 221.147 411.575 223.319 412.166 225.45C412.538 226.79 413.508 227.849 414.688 228.532C418.046 230.474 422.605 229.681 426.09 228.56C431.172 226.924 437.487 223.217 439.604 218C440.111 216.752 439.963 215.497 439.438 214.279C438.142 211.277 434.87 210.531 432.066 209.535Q432.156 202.113 431.873 194.696ZM212.556 310.254C208.709 306.373 204.13 304.24 198.568 304.342C195.219 304.403 190.376 305.467 187.934 307.959C186.941 308.973 186.508 310.144 186.53 311.564C186.56 313.475 188.003 315.266 189.44 316.374C193.362 319.398 199.615 319.97 204.343 319.105C207.368 318.552 210.918 317.002 212.671 314.365C213.087 313.74 213.458 313.089 213.827 312.436L212.556 310.254Z"/>
	<path fill="#1D466E" transform="matrix(1.04883 0 0 1.04883 0.000488281 6.10352e-05)" d="M174.915 343.856L174.294 342.844C174.574 342.436 174.659 342.247 175.125 341.938C176.17 341.245 177.869 340.905 179.069 340.364C182.564 338.79 185.976 337.012 189.395 335.28L243.009 308.689C247.913 306.238 269.612 293.668 273.362 294.47C271.121 301.986 273.058 313.546 275.156 320.956C266.839 327.074 251.838 332.67 242.203 337.315C220.447 347.804 198.903 358.713 177.013 368.925C176.252 362.516 176.958 349.108 174.915 343.856Z"/>
	<path fill="#89D1E4" transform="matrix(1.04883 0 0 1.04883 0.000488281 6.10352e-05)" d="M172.92 344.585L172.175 343.724C168.309 343.839 165.037 348.108 161.126 348.064L160.459 347.217C160.833 345.898 162.026 345.177 163.111 344.446C172.975 337.806 185.179 333.656 195.903 328.512Q228.893 312.596 261.629 296.164L297.662 278.036C302.558 275.544 307.291 272.407 312.351 270.303C313.774 269.712 315.147 269.092 316.707 269.416L317.001 270.094C314.613 275.35 290.676 282.568 284.835 287.693L284.997 288.579C280.91 290.261 277.177 292.253 273.362 294.47C269.612 293.668 247.913 306.238 243.009 308.689L189.395 335.28C185.976 337.012 182.564 338.79 179.069 340.364C177.869 340.905 176.17 341.245 175.125 341.938C174.659 342.247 174.574 342.436 174.294 342.844L174.915 343.856L172.92 344.585Z"/>
	<path fill="#89D1E4" transform="matrix(1.04883 0 0 1.04883 0.000488281 6.10352e-05)" d="M512.078 185.027L512.067 188.909C506.454 190.892 500.858 194.594 495.609 197.437L465.454 213.744L416.689 239.689C405.899 245.364 394.999 250.808 384.422 256.882C380.98 258.858 376.622 260.929 374.125 264.057C373.141 262.585 372.566 261.215 371.976 259.55L458.991 213.652L492.478 195.432C498.947 191.903 505.393 188.122 512.078 185.027Z"/>
	<path fill="#89D1E4" transform="matrix(1.04883 0 0 1.04883 0.000488281 6.10352e-05)" d="M455.017 149.137C450.936 149.718 394.788 181.708 386.9 186.216C382.688 188.624 374.354 194.675 369.952 195.34C368.61 195.543 368.178 195.302 367.119 194.519L367.084 193.857C371.975 189.895 379.095 187.012 384.692 183.885Q407.198 171.232 429.919 158.969C438.053 154.487 447.112 150.212 454.517 144.65C454.65 144.55 454.78 144.447 454.912 144.346C454.969 145.924 455.115 147.564 455.017 149.137Z"/>
	<path fill="#89D1E4" transform="matrix(1.04883 0 0 1.04883 0.000488281 6.10352e-05)" d="M220.709 283.607C220.97 283.582 221.232 283.564 221.493 283.531C225.585 283.01 231.593 278.911 235.336 276.974Q256.964 265.781 278.434 254.29C284.47 251.066 290.58 246.89 296.827 244.217C298.617 243.451 300.075 242.83 301.913 243.644C301.862 244.691 301.627 244.768 300.845 245.42C295.98 249.48 288.408 252.585 282.789 255.584Q259.829 267.811 236.64 279.6C231.624 282.144 225.167 284.436 220.7 287.781C220.504 286.28 220.468 285.105 220.709 283.607Z"/>
	<path fill="#89D1E4" transform="matrix(1.04883 0 0 1.04883 0.000488281 6.10352e-05)" d="M427.961 192.638L428.023 197.023C418.454 199.747 372.845 229 368.732 228.002C368.527 227.436 368.276 227.154 368.498 226.545C369.022 225.103 370.483 224.253 371.722 223.487C377.961 219.626 384.807 216.482 391.306 213.062C403.72 206.529 415.972 199.936 427.961 192.638Z"/>
	<path fill="#89D1E4" transform="matrix(1.04883 0 0 1.04883 0.000488281 6.10352e-05)" d="M511.706 149.977L511.869 153.588Q484.551 166.759 458.321 181.982C458.256 180.533 458.331 179.044 458.342 177.592C476.095 170.117 493.837 158.307 511.706 149.977Z"/>
	<path fill="#89D1E4" transform="matrix(1.04883 0 0 1.04883 0.000488281 6.10352e-05)" d="M218.433 285.394C218.144 286.911 217.925 288.48 217.424 289.939C213.075 290.779 174.266 310.778 167.596 314.392L168.587 310.154C174.554 308.167 180.265 304.645 185.859 301.784Q202.044 293.387 218.433 285.394Z"/>
	<path fill="#89D1E4" transform="matrix(1.04883 0 0 1.04883 0.000488281 6.10352e-05)" d="M432.036 190.548C439.994 187.99 447.491 182.266 455.007 178.534L454.989 183.008C446.906 186.216 439.828 191.447 431.873 194.696C431.858 193.311 431.96 191.931 432.036 190.548Z"/>
	<path fill="#FDFBFE" transform="matrix(1.04883 0 0 1.04883 0.000488281 6.10352e-05)" d="M218.433 285.394C218.477 282.242 217.836 280.119 219.393 277.199L220.353 277.342C221.555 279.587 221.195 281.22 220.709 283.607C220.468 285.105 220.504 286.28 220.7 287.781C218.172 295.69 217.328 305.001 213.827 312.436L212.556 310.254C213.689 303.294 215.215 296.639 217.424 289.939C217.925 288.48 218.144 286.911 218.433 285.394Z"/>
	<path fill="#C6E7EC" transform="matrix(1.04883 0 0 1.04883 0.000488281 6.10352e-05)" d="M149.431 300.439C153.146 302.326 156.524 304.711 160.343 306.384C162.35 307.263 165.24 307.263 166.953 308.335C167.473 308.661 168.149 309.667 168.587 310.154L167.596 314.392L166.704 314.586L165.928 314.026C165.734 312.815 165.672 311.343 164.87 310.369C164.075 309.405 151.775 306.301 149.465 306.002L149.431 300.439Z"/>
	<path fill="#1D466E" transform="matrix(1.04883 0 0 1.04883 0.000488281 6.10352e-05)" d="M275.156 320.956L275.705 324.318C277.617 332.578 280.456 341.174 281.678 349.52L281.43 352.955C254.165 365.378 227.456 378.94 200.531 392.077C197.679 393.468 183.454 399.48 182.034 400.646C181.742 400.885 181.402 401.494 181.247 401.845C180.76 400.609 180.585 399.364 180.345 398.063C179.353 389.458 178.01 380.858 177.357 372.22C177.152 371.144 177.111 370.017 177.013 368.925C198.903 358.713 220.447 347.804 242.203 337.315C251.838 332.67 266.839 327.074 275.156 320.956Z"/>
	<path fill="#89D1E4" transform="matrix(1.04883 0 0 1.04883 0.000488281 6.10352e-05)" d="M281.678 349.52L281.43 352.955C254.165 365.378 227.456 378.94 200.531 392.077C197.679 393.468 183.454 399.48 182.034 400.646C181.742 400.885 181.402 401.494 181.247 401.845C180.76 400.609 180.585 399.364 180.345 398.063C188.563 395.721 198.624 389.687 206.521 385.93C231.639 373.98 256.4 361.103 281.678 349.52Z"/>
	<path fill="#89D1E4" transform="matrix(1.04883 0 0 1.04883 0.000488281 6.10352e-05)" d="M275.156 320.956L275.705 324.318C243.091 340.64 209.827 355.569 177.357 372.22C177.152 371.144 177.111 370.017 177.013 368.925C198.903 358.713 220.447 347.804 242.203 337.315C251.838 332.67 266.839 327.074 275.156 320.956Z"/>
	<path fill="#1D466E" transform="matrix(1.04883 0 0 1.04883 0.000488281 6.10352e-05)" d="M511.679 286.237Q511.433 301.05 511.633 315.864C496.1 324.633 479.835 332.276 464.051 340.604L442.184 352.222C438.289 354.297 433.755 357.329 429.512 358.471C429.496 348.975 429.207 339.417 429.655 329.933C435.361 325.487 449.576 319.105 456.54 315.493Q484.383 301.38 511.679 286.237Z"/>
	<path fill="#89D1E4" transform="matrix(1.04883 0 0 1.04883 0.000488281 6.10352e-05)" d="M511.912 218.305L511.933 221.984C500.232 227.256 488.826 233.985 477.451 239.965C449.963 254.417 422.587 269.333 394.79 283.147C390.575 285.241 386.764 288.119 382.492 290.121C381.255 290.701 379.948 291.336 378.546 291.043C377.797 290.885 377.838 290.511 377.525 289.897C380.644 285.254 499.347 224.868 511.912 218.305Z"/>
	<path fill="#89D1E4" transform="matrix(1.04883 0 0 1.04883 0.000488281 6.10352e-05)" d="M511.656 283.006L511.679 286.237Q484.383 301.38 456.54 315.493C449.576 319.105 435.361 325.487 429.655 329.933C429.641 329.82 429.637 329.706 429.613 329.594C429.279 328.082 429.202 328.078 427.941 327.247C428.948 325.62 432.95 323.946 434.707 323.001C447.535 316.102 460.757 309.812 473.685 303.081C486.372 296.475 498.851 289.359 511.656 283.006Z"/>
	<path fill="#89D1E4" transform="matrix(1.04883 0 0 1.04883 0.000488281 6.10352e-05)" d="M511.894 254.532C510.997 256.015 500.906 260.714 498.603 261.921Q477.29 272.834 456.094 283.971C448.64 287.962 441.132 293.201 433.236 296.196C431.711 296.775 430.502 297.184 428.999 296.474L429.011 295.637C429.842 294.49 430.903 293.745 432.107 293.027C437.648 289.718 443.612 286.898 449.322 283.881Q469.75 273.146 490.348 262.739C496.304 259.717 505.474 253.919 511.196 252.053L511.911 252.748L511.894 254.532Z"/>
	<path fill="#89D1E4" transform="matrix(1.04883 0 0 1.04883 0.000488281 6.10352e-05)" d="M429.512 358.471C433.755 357.329 438.289 354.297 442.184 352.222L464.051 340.604C479.835 332.276 496.1 324.633 511.633 315.864L511.512 319.392C501.984 323.729 492.786 329.21 483.529 334.115C465.355 343.745 447.201 353.36 428.704 362.352C429.038 361.082 429.25 359.76 429.512 358.471Z"/>
	<path fill="#89D1E4" transform="matrix(1.04883 0 0 1.04883 0.000488281 6.10352e-05)" d="M394.066 318.663C390.888 318.96 388.417 321.323 385.424 322.239C384.44 322.541 384.267 322.647 383.349 322.136L383.379 321.086C386.829 316.669 395.765 313.111 400.999 311.166C399.043 314.023 396.697 316.425 394.066 318.663Z"/>
	<path fill="#89D1E4" transform="matrix(1.04883 0 0 1.04883 0.000488281 6.10352e-05)" d="M157.92 380.032C159.614 380.196 161.277 380.418 162.958 380.69C162.153 381.911 151.659 387.331 149.477 388.371L149.374 384.729L157.92 380.032Z"/>
	<path fill="#E67D33" transform="matrix(1.04883 0 0 1.04883 0.000488281 6.10352e-05)" d="M520.018 99.0396C531.094 104.746 541.792 111.296 552.622 117.461Q578.776 132.173 604.763 147.177C610.875 150.725 616.955 154.365 623.174 157.723C628.163 160.417 633.656 162.805 638.228 166.152C638.699 172.89 639.34 180.45 634.586 185.963C630.906 190.231 625.46 190.802 621.479 194.332C625.876 194.019 632.087 189.899 634.906 186.684C639.071 181.934 640.107 175.676 639.599 169.555Q639.503 168.42 639.369 167.288C645.633 170.06 651.618 173.58 657.627 176.861Q676.6 187.224 695.206 198.231Q730.707 218.664 766.442 238.689Q790.12 252.155 813.968 265.316C827.682 272.747 842.709 279.463 854.941 289.238C865.603 297.759 874.217 309.856 879.119 322.57C881.784 329.481 883.346 336.531 884.057 343.895C884.886 352.478 884.196 360.864 884.275 369.425L884.52 412.803C884.523 420.145 885.374 429.003 883.78 436.121C881.907 435.967 879.901 435.065 878.115 434.471C872.449 435.682 867.725 437.639 864.427 442.742C862.345 445.963 861.431 449.915 862.299 453.689C863.22 457.693 866.085 461.015 869.629 462.993C871.632 464.11 873.844 464.753 876.026 465.417C878.744 464.368 881.67 463.431 884.274 462.144C884.735 469.407 884.597 476.751 884.457 484.025L648.675 484.058C605.805 484.04 562.848 483.409 519.986 484.075L519.946 377.287C526.365 374.634 531.634 371.459 534.476 364.723C536.701 359.447 536.427 353.532 534.141 348.329C531.265 341.781 526.29 338.398 520.532 334.733L520.435 291.818C520.429 285.68 520.101 279.448 520.298 273.323C526.437 270.552 531.333 267.307 533.739 260.66C535.729 255.163 535.236 248.738 532.75 243.481C530.494 238.712 527.425 235.753 522.523 233.866L521.467 233.99C527.588 238.235 531.796 241.049 533.327 248.828C534.498 254.779 533.332 260.51 529.867 265.493C528.094 268.044 525.55 270.866 522.334 271.46C521.649 271.586 520.953 271.567 520.26 271.566L519.995 271.017C522.739 267.771 527.152 266.829 529.447 262.998C529.578 262.778 529.716 262.563 529.845 262.342C532.241 258.242 532.763 253.156 531.506 248.599C530.418 244.652 527.713 240.466 524.007 238.529C523.714 238.376 523.416 238.235 523.12 238.087C525.568 240.61 527.778 242.974 529.335 246.181C531.311 250.25 531.898 255.005 530.259 259.302C528.516 263.873 524.792 266.533 520.438 268.364Q520.151 252.919 520.407 237.474C520.528 236.312 520.748 235.156 520.934 234.003C519.465 228.719 520.377 204.707 520.344 197.388L520.018 99.0396ZM636.586 267.445C643.711 266.88 651.134 267.413 658.291 267.455L693.875 267.378C712.686 267.249 731.638 266.983 750.439 267.57Q731.712 252.264 712.275 237.871C705.721 232.921 698.551 228.22 692.366 222.864Q674.862 237.159 657.084 251.11C650.238 256.47 642.96 261.532 636.586 267.445ZM617.984 462.037L713.888 461.824C732.932 461.855 752.003 461.526 771.043 461.95L770.994 446.153C760.443 447.05 749.306 446.277 738.699 446.165L689.644 446.068L643.341 446.166C635.05 446.218 626.115 446.971 617.926 446.025L617.984 462.037ZM725.465 424.496L734.625 424.48L739.999 424.518L740.07 345.619C740.091 333.596 741.669 320.456 739.768 308.608C739.19 305.007 737.753 301.652 735.096 299.086Q733.781 297.823 732.288 296.777C729.809 300.405 727.068 304.153 726.14 308.529C723.608 320.467 725.136 338.086 725.208 350.653L725.465 424.496ZM646.993 424.776L653.625 424.728C656.411 424.741 659.206 424.699 661.987 424.883C660.581 415.096 661.541 403.988 661.55 394.063C661.566 376.108 661.34 358.111 661.688 340.161C661.885 330.044 663.213 318.771 661.327 308.821C660.61 305.039 657.805 299.192 654.931 296.649C651.769 300.334 648.771 303.993 647.645 308.858C645.039 320.118 646.94 338.731 646.97 350.785Q646.753 387.781 646.993 424.776ZM745.496 281.058C745.17 277.895 745.128 274.816 745.167 271.64C710.849 271.557 676.392 272.164 642.092 271.455C642.607 274.622 642.467 277.839 642.444 281.037C676.72 280.031 711.193 281.193 745.496 281.058ZM721.511 295.352C723.778 294.409 725.704 293.447 726.598 290.989C727.075 289.681 726.843 288.548 726.38 287.282C724.805 285.484 723.208 285.011 720.85 284.805C717.276 284.492 713.034 284.929 709.477 285.291C707.731 285.468 705.979 285.507 704.372 286.271C704.52 286.377 704.671 286.478 704.817 286.587C710.467 290.808 710.547 296.836 718.954 295.744Q720.236 295.571 721.511 295.352ZM687.546 424.538L687.506 346.009C687.526 334.575 688.906 322.34 687.405 311.037C686.83 306.702 684.75 300.363 681.558 297.194C681.429 297.066 681.279 296.961 681.14 296.844C678.058 300.665 674.849 304.948 673.823 309.849C671.262 322.083 673.483 336.481 673.499 348.994C673.532 374.197 672.918 399.426 673.209 424.622L680.625 424.609L687.546 424.538ZM674.602 294.882C676.432 293.062 678.07 291.292 678.243 288.613C677.61 287.159 677.125 286.461 675.602 285.879C671.201 284.196 665.433 285.019 660.788 285.252L659.539 285.803C659.069 287.366 659.103 288.265 659.93 289.712C661.603 292.634 664.8 294.88 668.055 295.66C670.342 296.208 672.494 295.887 674.602 294.882ZM699.832 293.696C700.998 291.935 702.253 290.423 701.867 288.196C701.695 287.203 701.091 286.456 700.211 285.959C695.897 283.521 686.652 284.952 681.639 285.156C682.666 289.113 683.595 292.472 687.345 294.745C690.118 296.425 693.173 296.249 696.186 295.345C697.447 294.967 698.699 294.37 699.832 293.696ZM650.973 295.545C652.616 294.523 654.384 293.233 654.81 291.212C654.995 290.335 654.861 289.584 654.446 288.769C653.623 287.154 650.875 285.531 649.146 285.163C647.386 284.788 645.272 284.987 643.474 285.123C642.044 285.845 640.657 287.252 640.309 288.892C640.017 290.272 640.745 291.855 641.653 292.849C643.357 294.713 645.585 295.981 648.145 295.939C649.102 295.924 650.037 295.726 650.973 295.545ZM742.636 295.147C744.255 293.682 746.649 291.72 746.397 289.235C746.246 287.758 745.286 286.728 744.038 286.044C741.033 284.394 738.074 284.853 734.797 285.083C733.65 285.968 732.678 286.683 732.479 288.243C732.249 290.049 733.087 291.907 734.309 293.201C735.608 294.576 737.796 295.888 739.74 295.904C740.732 295.912 741.761 295.587 742.636 295.147ZM713.606 424.527C713.069 397.615 713.453 370.626 713.463 343.706C713.467 332.348 714.92 319.637 713.005 308.495C712.364 304.769 710.127 300.267 707.418 297.544C706.881 297.004 707.01 297.116 706.57 296.799C703.71 300.988 700.873 304.846 699.815 309.913C697.66 320.239 699.142 337.183 699.156 348.23L699.038 424.503L705.875 424.535L713.606 424.527ZM638.324 428.926C637.471 433.585 636.337 438.103 635.115 442.673L714.707 442.996C725.597 442.967 736.718 443.428 747.571 442.712C749.316 442.685 750.434 442.991 751.848 441.919C753.371 437.674 750.922 433.241 750.189 428.993L638.324 428.926Z"/>
	<path fill="#673F7F" transform="matrix(1.04883 0 0 1.04883 0.000488281 6.10352e-05)" d="M519.987 601.632Q609.986 602.182 699.984 601.629L884.83 601.501C885.213 613.027 884.921 624.616 884.959 636.151C885.031 657.542 886.498 680.425 880.833 701.24Q880.035 704.173 879.052 707.05Q878.07 709.926 876.906 712.734Q875.742 715.543 874.402 718.271Q873.062 721 871.551 723.637Q870.04 726.275 868.364 728.811Q866.689 731.348 864.855 733.772Q863.022 736.197 861.038 738.5Q859.054 740.803 856.927 742.975C840.938 759.027 819.052 769.285 799.374 780.101Q777.661 791.944 756.202 804.243C743.961 810.352 732.19 817.933 720.077 824.407L578.618 901.574L541.947 921.98C534.719 925.986 527.584 930.229 520.015 933.57C520.499 921.692 520.038 909.633 520.026 897.73L519.985 826.897L519.987 601.632ZM681.755 684.484C663.352 695.852 641.029 708.861 635.741 731.594C633.367 741.8 635.024 753.331 640.59 762.251C647.657 773.577 660.238 780.09 672.937 782.958C680.199 784.598 687.455 784.893 694.844 784.052C697.276 794.198 700.94 809.441 695.318 818.94C693.096 822.695 689.485 825.132 685.236 826.025C681.504 826.808 674.732 826.288 671.327 824.21C670.157 823.496 669.871 823.005 669.488 821.724C671.123 816.848 686.097 814.335 681.01 803.41C679.531 800.233 676.337 798.244 673.096 797.235C669.661 796.166 666.567 796.191 663.111 797.068C658.738 799.107 654.956 801.625 653.209 806.375C651.727 810.405 652.242 815.362 654.08 819.188C656.636 824.509 661.801 828.051 667.271 829.893C675.508 832.667 685.915 832.12 693.673 828.128C698.103 825.848 701.549 822.423 703.03 817.597C706.378 806.687 702.099 794.233 700.103 783.449C710.303 780.816 718.794 776.044 724.333 766.776C728.558 759.706 730.279 751.067 728.25 743.007C726.342 735.429 721.516 728.578 714.721 724.645C708.098 720.812 700.667 719.914 693.155 720.491C691.74 713.931 691.152 707.033 690.278 700.372C705.62 689.1 719.115 675.429 722.031 655.767C723.569 645.398 722.553 630.127 715.977 621.47C713.864 618.688 710.782 616.493 707.244 616.09C706.222 615.973 705.176 615.982 704.149 615.987C694.433 621.142 689.897 628.38 686.742 638.715C682.347 653.108 680.918 669.446 681.755 684.484Z"/>
	<path fill="#673F7F" transform="matrix(1.04883 0 0 1.04883 0.000488281 6.10352e-05)" d="M683.009 704.9L683.72 705.101C685.537 709.336 685.457 716.568 685.63 721.163Q683.845 721.871 682.105 722.685C674.117 726.493 667.117 732.726 664.225 741.312C662.219 747.268 662.334 753.996 665.314 759.621C668.838 766.27 674.857 768.574 681.565 770.8C677.486 767.612 673.636 763.924 671.437 759.153C669.413 754.765 669.138 749.896 670.954 745.387C674.015 737.784 681.182 734.303 688.222 731.253Q688.942 740.206 690.332 749.08C691.114 758.99 692.867 769.327 694.607 779.124C686.799 780.348 679.641 780.998 671.869 779.168C662.677 777.004 653.88 772.101 648.851 763.862C644.851 757.307 644.302 749.47 646.19 742.153C650.938 723.752 667.66 713.831 683.009 704.9Z"/>
	<path fill="#673F7F" transform="matrix(1.04883 0 0 1.04883 0.000488281 6.10352e-05)" d="M704.63 634.099Q705.274 634.088 705.919 634.098C708.553 634.149 711.108 634.93 712.935 636.938C715.139 639.36 715.782 643.31 715.563 646.464C714.78 657.779 704.093 667.182 696.215 674.121C693.952 676.17 691.535 677.863 689.024 679.588C688.878 668.373 688.692 657.245 692.897 646.623C695.264 640.644 698.66 636.632 704.63 634.099Z"/>
	<path fill="#673F7F" transform="matrix(1.04883 0 0 1.04883 0.000488281 6.10352e-05)" d="M693.9 731.286C699.058 732.803 703.512 735.022 707.573 738.57C712.494 742.871 716.359 748.868 716.67 755.542C716.954 761.639 714 766.413 710.132 770.809C706.993 773.757 703.554 775.711 699.71 777.589C696.616 763.948 695.43 745.536 693.9 731.286Z"/>
	<path fill="#57B198" transform="matrix(1.04883 0 0 1.04883 0.000488281 6.10352e-05)" d="M149.531 601.416C162.522 602.323 176.106 601.591 189.152 601.593L267.26 601.579L510.282 601.516C510.045 611.107 510.429 620.661 510.361 630.244L510.443 768.344L510.487 873.235C510.514 892.093 510.052 911.104 510.788 929.944C510.646 929.953 510.505 929.98 510.364 929.971C508.887 929.877 436.24 889.291 430.395 886.045L288.998 807.795Q259.396 791.779 230.009 775.368C217.197 768.339 204.203 761.656 191.619 754.215C184.342 749.912 177.454 745.434 171.462 739.396C146.78 714.532 149.155 683.833 149.308 651.605L149.531 601.416ZM256.439 669.148C251.647 664.398 247.042 659.978 239.809 659.931C234.061 659.894 228.514 662.608 224.569 666.706C219.176 672.309 216.905 680.117 217.241 687.766C217.509 693.898 219.741 699.614 224.325 703.802C227.04 706.283 229.96 707.48 233.434 708.533C228.426 719.957 222.95 731.5 218.986 743.327C232.492 761.923 267.863 776.565 290.42 780.225C294.157 780.832 298.639 781.445 302.399 780.964C306.996 780.375 316.286 776.356 319.936 776.874C320.728 776.987 322.193 778.054 322.817 778.537C328.324 782.803 332.605 788.847 337.882 793.48C338.854 785.64 340.352 777.523 340.714 769.641C354.127 768.155 365.899 768.447 376.903 777.211C387.571 785.707 395.346 798.839 396.753 812.486Q397.049 815.396 397.062 818.321C400.34 816.661 403.575 815.156 407.107 814.109C421.507 810.307 435.711 810.801 448.775 818.5C458.452 824.204 465.764 832.423 473.012 840.829C473.173 828.181 474.72 815.464 475.479 802.83C476.478 786.228 476.831 769.593 477.759 753.001C478.266 743.939 480.4 733.7 478.855 724.704C478.094 720.274 475.881 716.445 472.762 713.247C464.658 704.936 452.293 701.705 440.996 701.693C436.865 701.688 432.719 701.897 428.592 702.075C429.436 699.075 430.728 696.59 432.22 693.876C425.346 680.016 417.895 668.108 402.508 662.861C390.706 658.836 377.007 660.816 366.022 666.385Q365.458 666.672 364.902 666.976C364.044 660.125 362.395 653.632 356.521 649.271C348.156 643.061 336.505 645.077 326.765 643.801C320.608 642.995 314.468 641.438 308.598 639.429C299.642 636.364 291.587 632.15 283.847 626.726C281.049 624.765 277.864 621.741 274.909 620.231C268.572 635.418 260.467 653.42 256.439 669.148Z"/>
	<path fill="#57B198" transform="matrix(1.04883 0 0 1.04883 0.000488281 6.10352e-05)" d="M278.432 635.349C291.081 644.804 309.852 652.011 325.681 653.023C332.268 653.444 339.419 652.884 345.825 654.458C348.506 655.117 352.007 656.437 353.422 658.991C355.343 662.458 355.769 668.563 354.583 672.298C354.236 673.39 354.241 673.434 353.196 674.001C350.597 672.75 347.825 669.448 345.671 667.436C345.618 665.962 345.75 663.713 345.119 662.405C344.336 660.781 343.431 659.884 341.762 659.185C340.896 659.365 340.521 659.29 339.871 659.962C338.05 661.847 338.497 664.574 338.524 666.998C336.179 667.598 333.422 668.071 331.319 669.277C329.705 670.201 328.204 671.326 327.726 673.165C328.156 673.831 328.069 673.88 328.761 674.26C332.499 676.312 337.978 674.149 341.702 673.109C344.959 676.378 347.953 679.104 352.073 681.247C350.863 685.746 349.626 690.191 348.096 694.596C336.222 688.292 343.773 684.892 340.42 679.721C339.113 679.34 338.299 679.48 337.034 680.088C333.401 681.831 335.759 684.106 334.422 686.558C333.575 688.11 324.578 690.141 322.443 690.909L324.447 698.08C328.398 696.308 332.766 695.16 336.887 693.82L338.043 694.933C340.572 697.393 343.197 699.468 346.027 701.572C345.161 706.114 343.852 710.621 342.724 715.108C340.167 713.396 337.695 711.633 335.263 709.749C335.35 709.161 335.425 708.571 335.519 707.985C335.667 707.064 335.843 706.149 335.945 705.221C336.153 703.34 335.836 702.074 334.63 700.6C333.696 700.356 333.578 700.161 332.629 700.537C329.5 701.78 328.563 705.288 327.349 708.111C324.041 708.982 320.667 709.67 317.329 710.429L318.104 716.871C322.396 715.778 326.79 715.044 331.14 714.218C334.597 716.434 337.189 719.59 340.937 721.436L337.577 734.37C334.59 732.799 331.758 731.069 328.917 729.249C329.391 726.836 330.381 723.6 328.682 721.445C327.873 720.419 327.284 720.516 326.119 720.512C323.149 721.963 322.45 724.153 321.25 727.038L311.806 730.523C311.464 731.751 311.027 733.066 310.847 734.326C310.661 735.641 311.191 736.165 312.008 737.091C315.662 738.351 321.08 735.824 324.724 734.695C328.406 736.46 331.92 739.156 335.212 741.57C334.324 745.295 333.16 748.947 332.044 752.608C329.407 751.445 326.796 750.215 324.177 749.013C324.091 746.976 323.887 744.987 323.623 742.966C322.757 741.538 322.103 740.446 320.512 739.758C319.536 739.86 319.291 739.724 318.518 740.406C316.532 742.157 316.483 744.403 316.295 746.889C312.933 748.149 309.998 749.385 307.455 752.046C301.937 757.82 304.128 762.643 304.327 769.45C303.436 770.294 302.716 770.614 301.527 770.839C289.366 773.142 261.761 761.994 251.086 756.201C243.302 751.976 236.113 746.954 228.959 741.76C232.404 731.627 238.618 714.702 244.9 706.29C247.718 713.159 249.758 717.131 256.439 720.953C254.63 728.646 250.655 736.46 247.441 743.675L255.682 746.495C262.94 732.31 267.651 716.865 272.971 701.883L292.989 646.767L285.547 643.271C284.131 647.894 282.134 652.411 280.41 656.931C276.481 667.233 272.428 677.52 268.861 687.954Q264.682 685.747 260.528 683.493C263.051 675.531 266.323 667.691 269.207 659.844C272.202 651.692 274.888 643.276 278.432 635.349ZM294.027 758.048L311.703 701.101C315.477 688.772 319.727 676.156 321.996 663.449L314.428 661.622Q300.718 708.473 285.998 755.016L294.027 758.048ZM273.112 730.253C271.75 736.508 269.781 742.512 267.498 748.487C271.281 749.83 277.435 752.852 281.373 752.795C283.253 746.7 285.312 740.59 286.89 734.411C282.262 733.158 277.728 731.469 273.112 730.253ZM306.91 672.688Q300.277 669.456 293.867 665.802C290.912 672.403 288.758 679.952 287.051 686.982C291.657 688.676 296.319 690.285 300.828 692.223L301.582 692.101C304.054 686.027 305.356 679.065 306.91 672.688ZM284.033 697.595L277.457 718.609C281.955 720.204 286.924 721.623 290.989 724.148Q294.14 713.359 298.082 702.833C293.444 701.089 288.559 699.573 284.033 697.595Z"/>
	<path fill="#57B198" transform="matrix(1.04883 0 0 1.04883 0.000488281 6.10352e-05)" d="M433.84 711.298Q439.452 710.685 445.07 711.245C456.046 712.395 463.344 717.088 470.152 725.557C467.631 746.133 467.324 767.34 466.211 788.062C465.719 797.237 463.974 808.844 464.911 817.801C462.432 815.868 459.938 813.975 457.296 812.267C441.594 802.111 424.34 800.239 406.262 804.174Q408.693 796.055 410.49 787.773C415.191 786.307 420.361 785.662 425.267 785.472C439.214 784.933 449.897 788.637 460.11 798.095C460.601 797.291 459.953 791.13 460.059 789.548L460.113 788.832C455.563 784.688 450.298 782.201 444.635 779.943C434.855 775.504 421.749 777.751 411.813 780.2Q413.816 771.546 415.921 762.916C419.554 761.439 423.194 760.614 427.101 760.338C439.935 759.432 450.822 763.666 460.476 771.987L460.496 763.187C458.627 761.532 456.617 759.934 454.47 758.654C443.244 751.959 429.915 751.469 417.464 754.588C418.417 748.94 419.674 743.315 420.788 737.695C438.015 735.242 447.633 736.147 462.128 746.037C462.48 743.124 462.464 740.193 462.514 737.263Q461.155 736.347 459.778 735.459C448.464 728.191 435.842 727.67 422.92 730.495C423.868 725.365 423.949 717.611 427.309 713.489C429.046 711.359 431.322 711.515 433.84 711.298Z"/>
	<path fill="#57B198" transform="matrix(1.04883 0 0 1.04883 0.000488281 6.10352e-05)" d="M383.966 670.052C388.759 669.961 393.52 670.256 398.135 671.647C409.885 675.188 416.348 684.259 421.918 694.562C420.81 700.666 418.396 706.798 417.071 712.943Q408.925 751.296 399.679 789.398C389.56 772.746 380.702 764.359 363.264 755.974C363.799 751.17 365.39 746.265 366.374 741.504L367.954 742.08C379.811 746.464 391.47 754.403 396.908 766.21C396.074 769.022 393.928 774.374 394.569 777.25C397.81 769.154 399.157 760.741 401.138 752.288C404.577 737.617 407.916 722.718 412.058 708.24C410.67 705.72 408.912 703.171 407.064 700.967C399.971 692.506 390.403 689.14 379.666 688.153C381.136 682.126 382.332 676.04 383.966 670.052Z"/>
	<path fill="#57B198" transform="matrix(1.04883 0 0 1.04883 0.000488281 6.10352e-05)" d="M372.713 718.328C388.487 721.054 393.838 725.682 403.456 738.059C401.754 743.358 400.694 748.967 399.414 754.388L399.095 754.985C398.006 754.75 393.858 747.543 392.16 745.927C385.797 739.874 377.559 736.639 369.339 733.989C370.302 728.708 371.354 723.525 372.713 718.328Z"/>
	<path fill="#57B198" transform="matrix(1.04883 0 0 1.04883 0.000488281 6.10352e-05)" d="M239.056 668.55C240.701 668.794 242.245 669.206 243.734 669.973C247.13 671.723 249.343 674.846 250.282 678.503C251.437 683.004 250.765 688.157 248.365 692.151C245.919 696.222 242.59 698.279 238.083 699.466C236.147 699.236 234.147 698.997 232.409 698.049C229.577 696.503 227.629 693.916 226.727 690.837C225.322 686.041 226.154 680.354 228.664 676.059C231.202 671.719 234.32 669.776 239.056 668.55Z"/>
	<path fill="#57B198" transform="matrix(1.04883 0 0 1.04883 0.000488281 6.10352e-05)" d="M378.154 694.549C381.338 695.137 384.491 695.53 387.588 696.519C396.575 699.39 404.505 705.44 408.905 713.845C408.524 719.349 407.164 724.467 405.621 729.747C404.701 728.027 403.677 726.245 402.437 724.734C395.735 716.563 384.686 712.647 374.495 711.596C376.234 706.163 376.911 700.137 378.154 694.549Z"/>
	<path fill="#57B198" transform="matrix(1.04883 0 0 1.04883 0.000488281 6.10352e-05)" d="M357.838 740.205C359.091 740.121 360.745 739.72 361.863 740.276C360.667 745.757 358.791 751.118 357.114 756.468C353.373 756.385 349.618 756.808 345.892 757.122C344.754 757.249 343.609 757.337 342.468 757.444L342.166 756.998C343.096 751.641 344.631 746.4 346.04 741.153L357.838 740.205Z"/>
	<path fill="#57B198" transform="matrix(1.04883 0 0 1.04883 0.000488281 6.10352e-05)" d="M370.944 695.245L371.974 695.138C372.93 697.811 369.872 708.577 369.174 711.857Q362.387 712.685 355.645 713.818L354.79 713.742C353.412 709.814 357.179 700.295 358.47 696.315L370.944 695.245Z"/>
	<path fill="#57B198" transform="matrix(1.04883 0 0 1.04883 0.000488281 6.10352e-05)" d="M366.435 718.307L366.86 718.994C366.049 723.783 364.736 728.476 363.524 733.175C358.838 734.711 353.553 735.218 348.674 735.938L348.33 735.595C347.929 731.321 350.713 724.904 351.989 720.731C356.697 719.335 361.54 718.594 366.435 718.307Z"/>
	<path fill="#57B198" transform="matrix(1.04883 0 0 1.04883 0.000488281 6.10352e-05)" d="M376.397 672.016L377.583 672.085C378.443 674.777 375.087 685.04 374.267 688.243C370.373 689.311 366.431 689.708 362.432 690.161L361.731 689.889C360.138 686.732 362.471 680.376 363.415 677.045C367.562 675.004 372.051 673.581 376.397 672.016Z"/>
	<path fill="#57B198" transform="matrix(1.04883 0 0 1.04883 0.000488281 6.10352e-05)" d="M258.339 691.811Q262.053 694.271 265.858 696.589C263.972 702.03 262.342 707.722 259.833 712.912C256.737 710.312 254.103 707.434 251.722 704.173C253.416 699.941 256.119 695.794 258.339 691.811Z"/>
	<path fill="#57B198" transform="matrix(1.04883 0 0 1.04883 0.000488281 6.10352e-05)" d="M316.32 753.544C316.556 753.525 316.791 753.499 317.027 753.487C319.187 753.377 321.404 753.596 322.977 755.271C324.079 756.445 324.497 758.058 324.341 759.629C324.043 762.634 322.107 765.018 319.793 766.778C318.997 766.718 318.212 766.649 317.427 766.501C315.226 766.088 313.543 764.99 312.367 763.058C311.531 761.683 311.24 760.105 311.674 758.531C312.383 755.962 314.125 754.815 316.32 753.544Z"/>
	<path fill="#1D466E" transform="matrix(1.04883 0 0 1.04883 0.000488281 6.10352e-05)" d="M563.236 493.25L782.485 493.193L849.319 493.311C860.843 493.337 872.932 494.151 884.377 493.075Q884.696 542.757 884.496 592.439Q790.178 591.725 695.858 592.227L470.75 592.121L258.765 591.926C222.377 591.905 185.955 591.597 149.57 592.042Q149.985 561.23 149.603 530.418C149.555 518.118 150.059 505.705 149.548 493.422L563.236 493.25ZM489.44 568.166C495.572 567.163 500.603 565.142 504.414 559.942C508.895 553.826 510.061 545.509 508.753 538.153C507.701 532.234 504.921 526.378 499.754 523.003C496.44 520.839 492.935 519.993 489.013 520.203C483.168 520.594 478.273 522.164 474.209 526.648C469.414 531.937 467.522 539.212 468.023 546.223C468.491 552.763 470.835 559.37 476.06 563.623C480.077 566.892 484.45 567.708 489.44 568.166ZM715.845 563.811L718.359 567.812C721.939 567.876 725.525 567.991 729.105 567.999C724.979 560.794 720.784 553.7 715.872 546.993C720.182 544.491 724.025 541.515 725.287 536.398Q725.435 535.779 725.518 535.148Q725.602 534.516 725.618 533.88Q725.635 533.243 725.586 532.609Q725.536 531.974 725.421 531.348Q725.306 530.722 725.126 530.111Q724.946 529.5 724.703 528.912Q724.46 528.323 724.158 527.763Q723.855 527.203 723.496 526.677C720.905 522.828 716.643 520.944 712.21 520.135C708.665 519.488 704.785 519.546 701.193 519.72C698.085 519.887 695.002 520.043 691.889 519.994L691.944 568.027L701.612 567.966L701.5 548.944L708.268 548.902C710.848 553.803 713.056 559.042 715.845 563.811ZM672.024 567.984C671.507 563.737 671.726 559.397 671.708 555.125C671.575 545.981 671.145 536.663 671.732 527.539Q678.679 527.612 685.623 527.839L685.53 520.089L647.938 519.964L647.997 527.538L662.031 527.599C662.021 541.059 662.383 554.645 661.83 568.091L672.024 567.984ZM355.467 520.934L355.467 550.919C355.462 556.409 355.78 562.215 355.174 567.664C361.489 567.75 377.133 569.309 381.926 565.425C381.847 564.298 382.092 564.634 381.319 563.984C377.992 561.185 370.57 562.203 366.531 562.282C364.882 562.346 363.199 562.48 361.552 562.384C360.785 556.945 361.152 550.99 361.247 545.489C366.374 545.561 374.684 546.641 378.833 543.207L379.023 542.223C378.036 540.879 376.179 540.517 374.611 540.232C370.711 539.523 365.404 539.825 361.444 540.278C361.208 535.343 361.176 530.478 361.278 525.543C366.719 525.701 374.857 527.053 379.856 524.768C380.698 523.744 380.721 523.708 380.777 522.386C380.207 521.384 380.025 521.1 378.799 520.791C377.374 520.432 375.377 520.623 373.897 520.721C367.75 521.02 361.613 520.777 355.467 520.934ZM577.147 519.781L572.884 520.034Q572.55 544.019 572.625 568.005C575.386 568.054 579.705 568.659 582.236 567.74C582.148 567.459 582.054 567.18 581.972 566.897C580.728 562.637 581.254 556.611 581.279 552.135L582.118 550.773C589.664 550.323 597.503 550.309 602.839 544.01Q603.358 543.39 603.813 542.722Q604.268 542.053 604.654 541.342Q605.04 540.632 605.353 539.886Q605.666 539.141 605.903 538.367Q606.14 537.594 606.299 536.801Q606.458 536.008 606.537 535.204Q606.615 534.399 606.614 533.59Q606.612 532.781 606.529 531.977C606.162 528.437 604.488 525.331 601.621 523.199C595.378 518.556 584.51 519.152 577.147 519.781ZM548.826 526.629L550.65 520.993L544.465 521.032C542.167 529.202 539.447 537.186 536.705 545.214C534.886 550.54 532.395 556.295 531.713 561.883Q525.094 541.444 518.691 520.937L512.558 520.843C514.383 526.495 526.906 565.631 529.245 567.448C530.857 567.631 532.069 567.669 533.66 567.324C536.54 563.277 546.281 533.695 548.826 526.629ZM614.074 520.015Q613.919 544.035 614.02 568.053C623.985 568.045 634.099 567.664 644.045 568.137L643.925 560.008C637.22 559.997 630.501 559.903 623.797 560.036L623.676 553.6C623.811 551.258 623.96 548.938 623.89 546.591Q631.964 546.767 640.038 546.576L639.999 538.997L624.216 539.005L624.202 527.679Q633.635 527.625 643.065 527.396L643.109 520.005L614.074 520.015ZM327.479 520.767L321.497 520.33L321.488 567.302C330.545 567.279 339.873 567.736 348.895 567.12L348.324 562.035C341.386 561.745 334.475 561.914 327.536 562.073C327.53 548.31 327.674 534.528 327.479 520.767ZM402.539 520.165C398.196 520.684 393.626 521.956 390.885 525.64C388.981 528.197 387.727 532.069 388.345 535.254C388.992 538.593 391.696 541.034 394.454 542.765C398.481 545.292 407.321 547.813 408.369 552.989C408.788 555.059 408.364 558.016 407.253 559.816C406.16 561.585 403.98 562.281 402.032 562.5C398.61 562.884 390.103 560.094 387.764 561.951C388.026 563.55 389.074 564.791 390.404 565.733C392.617 567.3 395.697 567.615 398.32 568C403.578 567.467 408.102 566.645 411.767 562.389C413.944 559.861 415.118 556.643 414.709 553.299C414.303 549.976 412.24 546.069 409.498 544.091C403.898 540.052 395.606 540.75 394.255 532.266C394.036 530.892 394.202 529.381 395.016 528.213C396.324 526.335 398.82 525.642 400.976 525.445C404.432 525.13 407.957 526.289 411.379 526.73L414.1 521.952C410.236 521.151 406.47 520.515 402.539 520.165ZM453.19 520.63C453.522 533.05 452.315 546.62 454.183 558.851C446.189 546.013 439.371 532.796 430.197 520.679L424.073 520.408C424.253 528.023 422.712 562.933 425.21 567.222C426.356 567.514 426.991 567.606 428.148 567.336C429.701 566.093 429.981 564.429 430.152 562.546C430.997 553.277 429.775 537.857 429.425 528.053Q440.755 548.111 453.143 567.533L458.828 567.64C457.858 552.1 458.996 536.158 458.972 520.556L453.19 520.63Z"/>
	<path fill="#1D466E" transform="matrix(1.04883 0 0 1.04883 0.000488281 6.10352e-05)" d="M487.522 525.156C489.62 525.054 491.867 525.264 493.828 526.048C497.497 527.514 500.102 530.652 501.523 534.263C503.9 540.298 503.692 548.643 500.864 554.487C498.468 559.439 495.147 561.472 490.185 563.213C487.38 563.075 484.876 562.609 482.442 561.129C478.167 558.529 475.529 554.113 474.479 549.296C473.213 543.49 473.884 536.423 477.272 531.405C479.94 527.454 482.968 526.005 487.522 525.156Z"/>
	<path fill="#1D466E" transform="matrix(1.04883 0 0 1.04883 0.000488281 6.10352e-05)" d="M701.905 527.239C705.806 527.025 710.271 527.081 713.692 529.226C715.046 530.076 716.104 531.304 716.301 532.947C716.616 535.582 714.89 538.005 713.355 539.953C709.626 542.144 705.667 542.197 701.451 542.605C701.791 537.499 701.795 532.355 701.905 527.239Z"/>
	<path fill="#1D466E" transform="matrix(1.04883 0 0 1.04883 0.000488281 6.10352e-05)" d="M583.319 527.115C587.573 527.06 591.759 527.114 595.078 530.223C596.233 531.305 596.953 532.659 596.923 534.28C596.876 536.79 595.193 539.247 593.375 540.838C589.81 542.403 586.336 542.447 582.518 542.53C582.493 539.139 581.494 529.539 583.319 527.115Z"/>
	<path fill="#E67D33" transform="matrix(1.04883 0 0 1.04883 0.000488281 6.10352e-05)" d="M876.468 435.605C878.476 435.526 880.612 435.296 882.197 436.811C886.861 441.266 884.921 455.431 884.441 461.209C880.872 462.887 877.384 464.425 873.389 463.588C871.592 462.989 869.874 462.262 868.303 461.183C865.638 459.351 863.708 456.343 863.113 453.171C862.407 449.403 863.493 445.435 865.683 442.332C868.319 438.595 872.043 436.48 876.468 435.605Z"/>
	<path fill="#E67D33" transform="matrix(1.04883 0 0 1.04883 0.000488281 6.10352e-05)" d="M520.513 339.209C522.084 339.803 523.656 340.462 525.037 341.436C528.88 344.145 531.472 348.954 532.13 353.553C532.949 359.278 530.866 364.312 527.479 368.799C525.105 370.713 522.701 372.217 520.053 373.718Q519.803 356.457 520.513 339.209Z"/>
</svg>
